<svg width="752" height="896" viewBox="0 0 752 896" class="keymap" xmlns="http://www.w3.org/2000/svg" xmlns:xlink="http://www.w3.org/1999/xlink">
<defs>/* start glyphs */
<svg id="mdi:apple-keyboard-shift">
<svg xmlns="http://www.w3.org/2000/svg" id="mdi-apple-keyboard-shift" viewBox="0 0 24 24"><path d="M15,18V12H17.17L12,6.83L6.83,12H9V18H15M12,4L22,14H17V20H7V14H2L12,4Z" /></svg>
</svg>
<svg id="mdi:backspace">
<svg xmlns="http://www.w3.org/2000/svg" id="mdi-backspace" viewBox="0 0 24 24"><path d="M22,3H7C6.31,3 5.77,3.35 5.41,3.88L0,12L5.41,20.11C5.77,20.64 6.31,21 7,21H22A2,2 0 0,0 24,19V5A2,2 0 0,0 22,3M19,15.59L17.59,17L14,13.41L10.41,17L9,15.59L12.59,12L9,8.41L10.41,7L14,10.59L17.59,7L19,8.41L15.41,12" /></svg>
</svg>
<svg id="mdi:keyboard-esc">
<svg xmlns="http://www.w3.org/2000/svg" id="mdi-keyboard-esc" viewBox="0 0 24 24"><path d="M1 7H7V9H3V11H7V13H3V15H7V17H1V7M11 7H15V9H11V11H13C14.11 11 15 11.9 15 13V15C15 16.11 14.11 17 13 17H9V15H13V13H11C9.9 13 9 12.11 9 11V9C9 7.9 9.9 7 11 7M19 7H21C22.11 7 23 7.9 23 9V10H21V9H19V15H21V14H23V15C23 16.11 22.11 17 21 17H19C17.9 17 17 16.11 17 15V9C17 7.9 17.9 7 19 7Z" /></svg>
</svg>
<svg id="mdi:keyboard-return">
<svg xmlns="http://www.w3.org/2000/svg" id="mdi-keyboard-return" viewBox="0 0 24 24"><path d="M19,7V11H5.83L9.41,7.41L8,6L2,12L8,18L9.41,16.58L5.83,13H21V7H19Z" /></svg>
</svg>
<svg id="mdi:keyboard-tab">
<svg xmlns="http://www.w3.org/2000/svg" id="mdi-keyboard-tab" viewBox="0 0 24 24"><path d="M20,18H22V6H20M11.59,7.41L15.17,11H1V13H15.17L11.59,16.58L13,18L19,12L13,6L11.59,7.41Z" /></svg>
</svg>
<svg id="mdi:transfer">
<svg xmlns="http://www.w3.org/2000/svg" id="mdi-transfer" viewBox="0 0 24 24"><path d="M8 4A2 2 0 0 0 6 6V10H8V6H16V9H13.5L17 12.5L20.5 9H18V6A2 2 0 0 0 16 4H8M3 12V14H11V12H3M3 15V17H11V15H3M13 15V17H21V15H13M3 18V20H11V18H3M13 18V20H21V18H13Z" /></svg>
</svg>
</defs>/* end glyphs */
<style>/* inherit to force styles through use tags */
svg path {
    fill: inherit;
}

/* font and background color specifications */
svg.keymap {
    font-family: SFMono-Regular,Consolas,Liberation Mono,Menlo,monospace;
    font-size: 14px;
    font-kerning: normal;
    text-rendering: optimizeLegibility;
    fill: #24292e;
}

/* default key styling */
rect.key {
    fill: #f6f8fa;
}

rect.key, rect.combo {
    stroke: #c9cccf;
    stroke-width: 1;
}

/* default key side styling, only used is draw_key_sides is set */
rect.side {
    filter: brightness(90%);
}

/* color accent for combo boxes */
rect.combo, rect.combo-separate {
    fill: #cdf;
}

/* color accent for held keys */
rect.held, rect.combo.held {
    fill: #fdd;
}

/* color accent for ghost (optional) keys */
rect.ghost, rect.combo.ghost {
    stroke-dasharray: 4, 4;
    stroke-width: 2;
}

text {
    text-anchor: middle;
    dominant-baseline: middle;
}

/* styling for layer labels */
text.label {
    font-weight: bold;
    text-anchor: start;
    stroke: white;
    stroke-width: 4;
    paint-order: stroke;
}

/* styling for optional footer */
text.footer {
    text-anchor: end;
    dominant-baseline: auto;
    stroke: white;
    stroke-width: 4;
    paint-order: stroke;
}

/* styling for combo tap, and key non-tap label text */
text.combo, text.hold, text.shifted, text.left, text.right, text.tl, text.tr, text.bl, text.br {
    font-size: 11px;
}

text.hold, text.bl, text.br {
    text-anchor: middle;
    dominant-baseline: auto;
}

text.shifted, text.tl, text.tr {
    text-anchor: middle;
    dominant-baseline: hanging;
}

text.left, text.tl, text.bl {
    text-anchor: start;
}

text.right, text.tr, text.br {
    text-anchor: end;
}

text.layer-activator {
    text-decoration: underline;
}

/* styling for hold/shifted label text in combo box */
text.combo.hold, text.combo.shifted, text.combo.left, text.combo.right {
    font-size: 8px;
}

/* lighter symbol for transparent keys */
text.trans {
    fill: #7b7e81;
}

/* styling for combo dendrons */
path.combo {
    stroke-width: 1;
    stroke: gray;
    fill: none;
}

/* Start Tabler Icons Cleanup */
/* cannot use height/width with glyphs */
.icon-tabler > path {
    fill: inherit;
    stroke: inherit;
    stroke-width: 2;
}
/* hide tabler's default box */
.icon-tabler > path[stroke="none"][fill="none"] {
    visibility: hidden;
}
/* End Tabler Icons Cleanup */

/* For default sytles, see https://github.com/caksoylar/keymap-drawer/blob/main/keymap_drawer/config.py#L85 */

svg.keymap {
  font-family: Ubuntu Mono, Inconsolata, Consolas, Liberation Mono, Menlo, monospace;
  font-size: 12px;
  font-weight: bold;
  text-rendering: optimizeLegibility;
}

/* Color accent for held keys */
rect.held, rect.combo.held {
    fill: #ffc;
}

/* Technique borrowed and extended from https://github.com/englmaxi/zmk-config/blob/master/keymap-drawer/config.yaml */
.sym_sub_text.tap {
  translate: -5px 2px;
  font-size: 20px;
}
.sym_sub_text.shifted {
  translate: 10px 13px;
  font-size: 10px;
  opacity: 1.0;
}
.combo.sym_sub_text.tap {
  translate: -1px 1px;
}
.combo.sym_sub_text.shifted {
  translate: 7px 5px;
  font-size: 10px;
  opacity: 1.0;
}

/* Toggle */
.toggle.shifted {
  translate: -10px 12px;
}

.toggle.hold {
  translate: 13px -23px;
}

/* Variant for tap-dances */
.tap_dance.tap {
  translate: -7px 0px;
  font-size: 12px;
}
.tap_dance.shifted {
  translate: 7px 17px;
  font-size: 12px;
  opacity: 1.0;
}

/* Variant for symbol next to symbol */
.sym_by_sym.tap {
  translate: -6px 0px;
}
.sym_by_sym.shifted {
  translate: 10px 12px;
  opacity: 1.0;
}

.combo.sym_by_sym.tap {
  translate: -35px 0px;
}
.combo.sym_by_sym.shifted {
  translate: 35px 20px;
  opacity: 1.0;
}

.combo.sym_by_sym.hold {
  visibility: hidden;
}

/* hide hold box for combo sym_by_sym */
.combo.sym_by_sym.hold > path[stroke="none"][fill="none"] {
  visibility: hidden;
}
</style>
<g transform="translate(40, 0)" class="layer-Qwery">
<text x="0" y="28" class="label" id="Qwery">Qwery:</text>
<g transform="translate(0, 56)">
<g transform="translate(28, 28)" class="key keypos-0">
<rect rx="6" ry="6" x="-26" y="-26" width="52" height="52" class="key side"/>
<rect rx="4" ry="4" x="-20" y="-24" width="40" height="40" class="key"/>
<use href="#mdi:keyboard-esc" xlink:href="#mdi:keyboard-esc" x="-9" y="-13" height="18" width="18.0" class="key tap glyph mdi:keyboard-esc"/>
</g>
<g transform="translate(84, 28)" class="key keypos-1">
<rect rx="6" ry="6" x="-26" y="-26" width="52" height="52" class="key side"/>
<rect rx="4" ry="4" x="-20" y="-24" width="40" height="40" class="key"/>
<text x="0" y="-4" class="key tap">Q</text>
</g>
<g transform="translate(140, 28)" class="key keypos-2">
<rect rx="6" ry="6" x="-26" y="-26" width="52" height="52" class="key side"/>
<rect rx="4" ry="4" x="-20" y="-24" width="40" height="40" class="key"/>
<text x="0" y="-4" class="key tap">W</text>
</g>
<g transform="translate(196, 28)" class="key keypos-3">
<rect rx="6" ry="6" x="-26" y="-26" width="52" height="52" class="key side"/>
<rect rx="4" ry="4" x="-20" y="-24" width="40" height="40" class="key"/>
<text x="0" y="-4" class="key tap">E</text>
</g>
<g transform="translate(252, 28)" class="key keypos-4">
<rect rx="6" ry="6" x="-26" y="-26" width="52" height="52" class="key side"/>
<rect rx="4" ry="4" x="-20" y="-24" width="40" height="40" class="key"/>
<text x="0" y="-4" class="key tap">R</text>
</g>
<g transform="translate(308, 28)" class="key keypos-5">
<rect rx="6" ry="6" x="-26" y="-26" width="52" height="52" class="key side"/>
<rect rx="4" ry="4" x="-20" y="-24" width="40" height="40" class="key"/>
<text x="0" y="-4" class="key tap">T</text>
</g>
<g transform="translate(364, 28)" class="key keypos-6">
<rect rx="6" ry="6" x="-26" y="-26" width="52" height="52" class="key side"/>
<rect rx="4" ry="4" x="-20" y="-24" width="40" height="40" class="key"/>
<text x="0" y="-4" class="key tap">Y</text>
</g>
<g transform="translate(420, 28)" class="key keypos-7">
<rect rx="6" ry="6" x="-26" y="-26" width="52" height="52" class="key side"/>
<rect rx="4" ry="4" x="-20" y="-24" width="40" height="40" class="key"/>
<text x="0" y="-4" class="key tap">U</text>
</g>
<g transform="translate(476, 28)" class="key keypos-8">
<rect rx="6" ry="6" x="-26" y="-26" width="52" height="52" class="key side"/>
<rect rx="4" ry="4" x="-20" y="-24" width="40" height="40" class="key"/>
<text x="0" y="-4" class="key tap">I</text>
</g>
<g transform="translate(532, 28)" class="key keypos-9">
<rect rx="6" ry="6" x="-26" y="-26" width="52" height="52" class="key side"/>
<rect rx="4" ry="4" x="-20" y="-24" width="40" height="40" class="key"/>
<text x="0" y="-4" class="key tap">O</text>
</g>
<g transform="translate(588, 28)" class="key keypos-10">
<rect rx="6" ry="6" x="-26" y="-26" width="52" height="52" class="key side"/>
<rect rx="4" ry="4" x="-20" y="-24" width="40" height="40" class="key"/>
<text x="0" y="-4" class="key tap">P</text>
</g>
<g transform="translate(644, 28)" class="key backspace keypos-11">
<rect rx="6" ry="6" x="-26" y="-26" width="52" height="52" class="key backspace side"/>
<rect rx="4" ry="4" x="-20" y="-24" width="40" height="40" class="key backspace"/>
<use href="#mdi:backspace" xlink:href="#mdi:backspace" x="-9" y="-13" height="18" width="18.0" class="key backspace tap glyph mdi:backspace"/>
</g>
<g transform="translate(35, 84)" class="key keypos-12">
<rect rx="6" ry="6" x="-33" y="-26" width="66" height="52" class="key side"/>
<rect rx="4" ry="4" x="-27" y="-24" width="54" height="40" class="key"/>
<use href="#mdi:keyboard-tab" xlink:href="#mdi:keyboard-tab" x="-9" y="-13" height="18" width="18.0" class="key tap glyph mdi:keyboard-tab"/>
</g>
<g transform="translate(98, 84)" class="key keypos-13">
<rect rx="6" ry="6" x="-26" y="-26" width="52" height="52" class="key side"/>
<rect rx="4" ry="4" x="-20" y="-24" width="40" height="40" class="key"/>
<text x="0" y="-4" class="key tap">A</text>
</g>
<g transform="translate(154, 84)" class="key keypos-14">
<rect rx="6" ry="6" x="-26" y="-26" width="52" height="52" class="key side"/>
<rect rx="4" ry="4" x="-20" y="-24" width="40" height="40" class="key"/>
<text x="0" y="-4" class="key tap">S</text>
</g>
<g transform="translate(210, 84)" class="key keypos-15">
<rect rx="6" ry="6" x="-26" y="-26" width="52" height="52" class="key side"/>
<rect rx="4" ry="4" x="-20" y="-24" width="40" height="40" class="key"/>
<text x="0" y="-4" class="key tap">D</text>
</g>
<g transform="translate(266, 84)" class="key keypos-16">
<rect rx="6" ry="6" x="-26" y="-26" width="52" height="52" class="key side"/>
<rect rx="4" ry="4" x="-20" y="-24" width="40" height="40" class="key"/>
<text x="0" y="-4" class="key tap">F</text>
</g>
<g transform="translate(322, 84)" class="key keypos-17">
<rect rx="6" ry="6" x="-26" y="-26" width="52" height="52" class="key side"/>
<rect rx="4" ry="4" x="-20" y="-24" width="40" height="40" class="key"/>
<text x="0" y="-4" class="key tap">G</text>
</g>
<g transform="translate(378, 84)" class="key keypos-18">
<rect rx="6" ry="6" x="-26" y="-26" width="52" height="52" class="key side"/>
<rect rx="4" ry="4" x="-20" y="-24" width="40" height="40" class="key"/>
<text x="0" y="-4" class="key tap">H</text>
</g>
<g transform="translate(434, 84)" class="key keypos-19">
<rect rx="6" ry="6" x="-26" y="-26" width="52" height="52" class="key side"/>
<rect rx="4" ry="4" x="-20" y="-24" width="40" height="40" class="key"/>
<text x="0" y="-4" class="key tap">J</text>
</g>
<g transform="translate(490, 84)" class="key keypos-20">
<rect rx="6" ry="6" x="-26" y="-26" width="52" height="52" class="key side"/>
<rect rx="4" ry="4" x="-20" y="-24" width="40" height="40" class="key"/>
<text x="0" y="-4" class="key tap">K</text>
</g>
<g transform="translate(546, 84)" class="key keypos-21">
<rect rx="6" ry="6" x="-26" y="-26" width="52" height="52" class="key side"/>
<rect rx="4" ry="4" x="-20" y="-24" width="40" height="40" class="key"/>
<text x="0" y="-4" class="key tap">L</text>
</g>
<g transform="translate(623, 84)" class="key enter keypos-22">
<rect rx="6" ry="6" x="-47" y="-26" width="94" height="52" class="key enter side"/>
<rect rx="4" ry="4" x="-41" y="-24" width="82" height="40" class="key enter"/>
<use href="#mdi:keyboard-return" xlink:href="#mdi:keyboard-return" x="-9" y="-13" height="18" width="18.0" class="key enter tap glyph mdi:keyboard-return"/>
</g>
<g transform="translate(49, 140)" class="key keypos-23">
<rect rx="6" ry="6" x="-47" y="-26" width="94" height="52" class="key side"/>
<rect rx="4" ry="4" x="-41" y="-24" width="82" height="40" class="key"/>
<use href="#mdi:apple-keyboard-shift" xlink:href="#mdi:apple-keyboard-shift" x="-9" y="-13" height="18" width="18.0" class="key tap glyph mdi:apple-keyboard-shift"/>
</g>
<g transform="translate(126, 140)" class="key keypos-24">
<rect rx="6" ry="6" x="-26" y="-26" width="52" height="52" class="key side"/>
<rect rx="4" ry="4" x="-20" y="-24" width="40" height="40" class="key"/>
<text x="0" y="-4" class="key tap">Z</text>
</g>
<g transform="translate(182, 140)" class="key keypos-25">
<rect rx="6" ry="6" x="-26" y="-26" width="52" height="52" class="key side"/>
<rect rx="4" ry="4" x="-20" y="-24" width="40" height="40" class="key"/>
<text x="0" y="-4" class="key tap">X</text>
</g>
<g transform="translate(238, 140)" class="key keypos-26">
<rect rx="6" ry="6" x="-26" y="-26" width="52" height="52" class="key side"/>
<rect rx="4" ry="4" x="-20" y="-24" width="40" height="40" class="key"/>
<text x="0" y="-4" class="key tap">C</text>
</g>
<g transform="translate(294, 140)" class="key keypos-27">
<rect rx="6" ry="6" x="-26" y="-26" width="52" height="52" class="key side"/>
<rect rx="4" ry="4" x="-20" y="-24" width="40" height="40" class="key"/>
<text x="0" y="-4" class="key tap">V</text>
</g>
<g transform="translate(350, 140)" class="key keypos-28">
<rect rx="6" ry="6" x="-26" y="-26" width="52" height="52" class="key side"/>
<rect rx="4" ry="4" x="-20" y="-24" width="40" height="40" class="key"/>
<text x="0" y="-4" class="key tap">B</text>
</g>
<g transform="translate(406, 140)" class="key keypos-29">
<rect rx="6" ry="6" x="-26" y="-26" width="52" height="52" class="key side"/>
<rect rx="4" ry="4" x="-20" y="-24" width="40" height="40" class="key"/>
<text x="0" y="-4" class="key tap">N</text>
</g>
<g transform="translate(462, 140)" class="key keypos-30">
<rect rx="6" ry="6" x="-26" y="-26" width="52" height="52" class="key side"/>
<rect rx="4" ry="4" x="-20" y="-24" width="40" height="40" class="key"/>
<text x="0" y="-4" class="key tap">M</text>
</g>
<g transform="translate(518, 140)" class="key keypos-31">
<rect rx="6" ry="6" x="-26" y="-26" width="52" height="52" class="key side"/>
<rect rx="4" ry="4" x="-20" y="-24" width="40" height="40" class="key"/>
<text x="0" y="-4" class="key tap">Q</text>
</g>
<g transform="translate(574, 140)" class="key keypos-32">
<rect rx="6" ry="6" x="-26" y="-26" width="52" height="52" class="key side"/>
<rect rx="4" ry="4" x="-20" y="-24" width="40" height="40" class="key"/>
<text x="0" y="-4" class="key tap">W</text>
</g>
<g transform="translate(637, 140)" class="key keypos-33">
<rect rx="6" ry="6" x="-33" y="-26" width="66" height="52" class="key side"/>
<rect rx="4" ry="4" x="-27" y="-24" width="54" height="40" class="key"/>
<text x="0" y="-4" class="key tap">E</text>
</g>
<g transform="translate(35, 196)" class="key keypos-34">
<rect rx="6" ry="6" x="-33" y="-26" width="66" height="52" class="key side"/>
<rect rx="4" ry="4" x="-27" y="-24" width="54" height="40" class="key"/>
<text x="0" y="-4" class="key tap">Q</text>
</g>
<g transform="translate(98, 196)" class="key keypos-35">
<rect rx="6" ry="6" x="-26" y="-26" width="52" height="52" class="key side"/>
<rect rx="4" ry="4" x="-20" y="-24" width="40" height="40" class="key"/>
<text x="0" y="-4" class="key tap">W</text>
</g>
<g transform="translate(161, 196)" class="key keypos-36">
<rect rx="6" ry="6" x="-33" y="-26" width="66" height="52" class="key side"/>
<rect rx="4" ry="4" x="-27" y="-24" width="54" height="40" class="key"/>
<text x="0" y="-4" class="key tap">E</text>
</g>
<g transform="translate(273, 196)" class="key keypos-37">
<rect rx="6" ry="6" x="-75" y="-26" width="150" height="52" class="key side"/>
<rect rx="4" ry="4" x="-69" y="-24" width="138" height="40" class="key"/>
<text x="0" y="-4" class="key tap">R</text>
</g>
<g transform="translate(413, 196)" class="key keypos-38">
<rect rx="6" ry="6" x="-61" y="-26" width="122" height="52" class="key side"/>
<rect rx="4" ry="4" x="-55" y="-24" width="110" height="40" class="key"/>
<text x="0" y="-4" class="key tap">T</text>
</g>
<g transform="translate(511, 196)" class="key keypos-39">
<rect rx="6" ry="6" x="-33" y="-26" width="66" height="52" class="key side"/>
<rect rx="4" ry="4" x="-27" y="-24" width="54" height="40" class="key"/>
<text x="0" y="-4" class="key tap">Y</text>
</g>
<g transform="translate(574, 196)" class="key keypos-40">
<rect rx="6" ry="6" x="-26" y="-26" width="52" height="52" class="key side"/>
<rect rx="4" ry="4" x="-20" y="-24" width="40" height="40" class="key"/>
<text x="0" y="-4" class="key tap">U</text>
</g>
<g transform="translate(637, 196)" class="key keypos-41">
<rect rx="6" ry="6" x="-33" y="-26" width="66" height="52" class="key side"/>
<rect rx="4" ry="4" x="-27" y="-24" width="54" height="40" class="key"/>
<text x="0" y="-4" class="key tap">I</text>
</g>
</g>
</g>
<g transform="translate(40, 280)" class="layer-1">
<text x="0" y="28" class="label" id="x_x">1:</text>
<g transform="translate(0, 56)">
<g transform="translate(28, 28)" class="key trans keypos-0">
<rect rx="6" ry="6" x="-26" y="-26" width="52" height="52" class="key trans side"/>
<rect rx="4" ry="4" x="-20" y="-24" width="40" height="40" class="key trans"/>
<use href="#mdi:transfer" xlink:href="#mdi:transfer" x="-9" y="-13" height="18" width="18.0" class="key trans tap glyph mdi:transfer"/>
</g>
<g transform="translate(84, 28)" class="key trans keypos-1">
<rect rx="6" ry="6" x="-26" y="-26" width="52" height="52" class="key trans side"/>
<rect rx="4" ry="4" x="-20" y="-24" width="40" height="40" class="key trans"/>
<use href="#mdi:transfer" xlink:href="#mdi:transfer" x="-9" y="-13" height="18" width="18.0" class="key trans tap glyph mdi:transfer"/>
</g>
<g transform="translate(140, 28)" class="key trans keypos-2">
<rect rx="6" ry="6" x="-26" y="-26" width="52" height="52" class="key trans side"/>
<rect rx="4" ry="4" x="-20" y="-24" width="40" height="40" class="key trans"/>
<use href="#mdi:transfer" xlink:href="#mdi:transfer" x="-9" y="-13" height="18" width="18.0" class="key trans tap glyph mdi:transfer"/>
</g>
<g transform="translate(196, 28)" class="key trans keypos-3">
<rect rx="6" ry="6" x="-26" y="-26" width="52" height="52" class="key trans side"/>
<rect rx="4" ry="4" x="-20" y="-24" width="40" height="40" class="key trans"/>
<use href="#mdi:transfer" xlink:href="#mdi:transfer" x="-9" y="-13" height="18" width="18.0" class="key trans tap glyph mdi:transfer"/>
</g>
<g transform="translate(252, 28)" class="key trans keypos-4">
<rect rx="6" ry="6" x="-26" y="-26" width="52" height="52" class="key trans side"/>
<rect rx="4" ry="4" x="-20" y="-24" width="40" height="40" class="key trans"/>
<use href="#mdi:transfer" xlink:href="#mdi:transfer" x="-9" y="-13" height="18" width="18.0" class="key trans tap glyph mdi:transfer"/>
</g>
<g transform="translate(308, 28)" class="key trans keypos-5">
<rect rx="6" ry="6" x="-26" y="-26" width="52" height="52" class="key trans side"/>
<rect rx="4" ry="4" x="-20" y="-24" width="40" height="40" class="key trans"/>
<use href="#mdi:transfer" xlink:href="#mdi:transfer" x="-9" y="-13" height="18" width="18.0" class="key trans tap glyph mdi:transfer"/>
</g>
<g transform="translate(364, 28)" class="key trans keypos-6">
<rect rx="6" ry="6" x="-26" y="-26" width="52" height="52" class="key trans side"/>
<rect rx="4" ry="4" x="-20" y="-24" width="40" height="40" class="key trans"/>
<use href="#mdi:transfer" xlink:href="#mdi:transfer" x="-9" y="-13" height="18" width="18.0" class="key trans tap glyph mdi:transfer"/>
</g>
<g transform="translate(420, 28)" class="key trans keypos-7">
<rect rx="6" ry="6" x="-26" y="-26" width="52" height="52" class="key trans side"/>
<rect rx="4" ry="4" x="-20" y="-24" width="40" height="40" class="key trans"/>
<use href="#mdi:transfer" xlink:href="#mdi:transfer" x="-9" y="-13" height="18" width="18.0" class="key trans tap glyph mdi:transfer"/>
</g>
<g transform="translate(476, 28)" class="key trans keypos-8">
<rect rx="6" ry="6" x="-26" y="-26" width="52" height="52" class="key trans side"/>
<rect rx="4" ry="4" x="-20" y="-24" width="40" height="40" class="key trans"/>
<use href="#mdi:transfer" xlink:href="#mdi:transfer" x="-9" y="-13" height="18" width="18.0" class="key trans tap glyph mdi:transfer"/>
</g>
<g transform="translate(532, 28)" class="key trans keypos-9">
<rect rx="6" ry="6" x="-26" y="-26" width="52" height="52" class="key trans side"/>
<rect rx="4" ry="4" x="-20" y="-24" width="40" height="40" class="key trans"/>
<use href="#mdi:transfer" xlink:href="#mdi:transfer" x="-9" y="-13" height="18" width="18.0" class="key trans tap glyph mdi:transfer"/>
</g>
<g transform="translate(588, 28)" class="key trans keypos-10">
<rect rx="6" ry="6" x="-26" y="-26" width="52" height="52" class="key trans side"/>
<rect rx="4" ry="4" x="-20" y="-24" width="40" height="40" class="key trans"/>
<use href="#mdi:transfer" xlink:href="#mdi:transfer" x="-9" y="-13" height="18" width="18.0" class="key trans tap glyph mdi:transfer"/>
</g>
<g transform="translate(644, 28)" class="key trans keypos-11">
<rect rx="6" ry="6" x="-26" y="-26" width="52" height="52" class="key trans side"/>
<rect rx="4" ry="4" x="-20" y="-24" width="40" height="40" class="key trans"/>
<use href="#mdi:transfer" xlink:href="#mdi:transfer" x="-9" y="-13" height="18" width="18.0" class="key trans tap glyph mdi:transfer"/>
</g>
<g transform="translate(35, 84)" class="key trans keypos-12">
<rect rx="6" ry="6" x="-33" y="-26" width="66" height="52" class="key trans side"/>
<rect rx="4" ry="4" x="-27" y="-24" width="54" height="40" class="key trans"/>
<use href="#mdi:transfer" xlink:href="#mdi:transfer" x="-9" y="-13" height="18" width="18.0" class="key trans tap glyph mdi:transfer"/>
</g>
<g transform="translate(98, 84)" class="key trans keypos-13">
<rect rx="6" ry="6" x="-26" y="-26" width="52" height="52" class="key trans side"/>
<rect rx="4" ry="4" x="-20" y="-24" width="40" height="40" class="key trans"/>
<use href="#mdi:transfer" xlink:href="#mdi:transfer" x="-9" y="-13" height="18" width="18.0" class="key trans tap glyph mdi:transfer"/>
</g>
<g transform="translate(154, 84)" class="key trans keypos-14">
<rect rx="6" ry="6" x="-26" y="-26" width="52" height="52" class="key trans side"/>
<rect rx="4" ry="4" x="-20" y="-24" width="40" height="40" class="key trans"/>
<use href="#mdi:transfer" xlink:href="#mdi:transfer" x="-9" y="-13" height="18" width="18.0" class="key trans tap glyph mdi:transfer"/>
</g>
<g transform="translate(210, 84)" class="key trans keypos-15">
<rect rx="6" ry="6" x="-26" y="-26" width="52" height="52" class="key trans side"/>
<rect rx="4" ry="4" x="-20" y="-24" width="40" height="40" class="key trans"/>
<use href="#mdi:transfer" xlink:href="#mdi:transfer" x="-9" y="-13" height="18" width="18.0" class="key trans tap glyph mdi:transfer"/>
</g>
<g transform="translate(266, 84)" class="key trans keypos-16">
<rect rx="6" ry="6" x="-26" y="-26" width="52" height="52" class="key trans side"/>
<rect rx="4" ry="4" x="-20" y="-24" width="40" height="40" class="key trans"/>
<use href="#mdi:transfer" xlink:href="#mdi:transfer" x="-9" y="-13" height="18" width="18.0" class="key trans tap glyph mdi:transfer"/>
</g>
<g transform="translate(322, 84)" class="key trans keypos-17">
<rect rx="6" ry="6" x="-26" y="-26" width="52" height="52" class="key trans side"/>
<rect rx="4" ry="4" x="-20" y="-24" width="40" height="40" class="key trans"/>
<use href="#mdi:transfer" xlink:href="#mdi:transfer" x="-9" y="-13" height="18" width="18.0" class="key trans tap glyph mdi:transfer"/>
</g>
<g transform="translate(378, 84)" class="key trans keypos-18">
<rect rx="6" ry="6" x="-26" y="-26" width="52" height="52" class="key trans side"/>
<rect rx="4" ry="4" x="-20" y="-24" width="40" height="40" class="key trans"/>
<use href="#mdi:transfer" xlink:href="#mdi:transfer" x="-9" y="-13" height="18" width="18.0" class="key trans tap glyph mdi:transfer"/>
</g>
<g transform="translate(434, 84)" class="key trans keypos-19">
<rect rx="6" ry="6" x="-26" y="-26" width="52" height="52" class="key trans side"/>
<rect rx="4" ry="4" x="-20" y="-24" width="40" height="40" class="key trans"/>
<use href="#mdi:transfer" xlink:href="#mdi:transfer" x="-9" y="-13" height="18" width="18.0" class="key trans tap glyph mdi:transfer"/>
</g>
<g transform="translate(490, 84)" class="key trans keypos-20">
<rect rx="6" ry="6" x="-26" y="-26" width="52" height="52" class="key trans side"/>
<rect rx="4" ry="4" x="-20" y="-24" width="40" height="40" class="key trans"/>
<use href="#mdi:transfer" xlink:href="#mdi:transfer" x="-9" y="-13" height="18" width="18.0" class="key trans tap glyph mdi:transfer"/>
</g>
<g transform="translate(546, 84)" class="key trans keypos-21">
<rect rx="6" ry="6" x="-26" y="-26" width="52" height="52" class="key trans side"/>
<rect rx="4" ry="4" x="-20" y="-24" width="40" height="40" class="key trans"/>
<use href="#mdi:transfer" xlink:href="#mdi:transfer" x="-9" y="-13" height="18" width="18.0" class="key trans tap glyph mdi:transfer"/>
</g>
<g transform="translate(623, 84)" class="key trans keypos-22">
<rect rx="6" ry="6" x="-47" y="-26" width="94" height="52" class="key trans side"/>
<rect rx="4" ry="4" x="-41" y="-24" width="82" height="40" class="key trans"/>
<use href="#mdi:transfer" xlink:href="#mdi:transfer" x="-9" y="-13" height="18" width="18.0" class="key trans tap glyph mdi:transfer"/>
</g>
<g transform="translate(49, 140)" class="key trans keypos-23">
<rect rx="6" ry="6" x="-47" y="-26" width="94" height="52" class="key trans side"/>
<rect rx="4" ry="4" x="-41" y="-24" width="82" height="40" class="key trans"/>
<use href="#mdi:transfer" xlink:href="#mdi:transfer" x="-9" y="-13" height="18" width="18.0" class="key trans tap glyph mdi:transfer"/>
</g>
<g transform="translate(126, 140)" class="key trans keypos-24">
<rect rx="6" ry="6" x="-26" y="-26" width="52" height="52" class="key trans side"/>
<rect rx="4" ry="4" x="-20" y="-24" width="40" height="40" class="key trans"/>
<use href="#mdi:transfer" xlink:href="#mdi:transfer" x="-9" y="-13" height="18" width="18.0" class="key trans tap glyph mdi:transfer"/>
</g>
<g transform="translate(182, 140)" class="key trans keypos-25">
<rect rx="6" ry="6" x="-26" y="-26" width="52" height="52" class="key trans side"/>
<rect rx="4" ry="4" x="-20" y="-24" width="40" height="40" class="key trans"/>
<use href="#mdi:transfer" xlink:href="#mdi:transfer" x="-9" y="-13" height="18" width="18.0" class="key trans tap glyph mdi:transfer"/>
</g>
<g transform="translate(238, 140)" class="key trans keypos-26">
<rect rx="6" ry="6" x="-26" y="-26" width="52" height="52" class="key trans side"/>
<rect rx="4" ry="4" x="-20" y="-24" width="40" height="40" class="key trans"/>
<use href="#mdi:transfer" xlink:href="#mdi:transfer" x="-9" y="-13" height="18" width="18.0" class="key trans tap glyph mdi:transfer"/>
</g>
<g transform="translate(294, 140)" class="key trans keypos-27">
<rect rx="6" ry="6" x="-26" y="-26" width="52" height="52" class="key trans side"/>
<rect rx="4" ry="4" x="-20" y="-24" width="40" height="40" class="key trans"/>
<use href="#mdi:transfer" xlink:href="#mdi:transfer" x="-9" y="-13" height="18" width="18.0" class="key trans tap glyph mdi:transfer"/>
</g>
<g transform="translate(350, 140)" class="key trans keypos-28">
<rect rx="6" ry="6" x="-26" y="-26" width="52" height="52" class="key trans side"/>
<rect rx="4" ry="4" x="-20" y="-24" width="40" height="40" class="key trans"/>
<use href="#mdi:transfer" xlink:href="#mdi:transfer" x="-9" y="-13" height="18" width="18.0" class="key trans tap glyph mdi:transfer"/>
</g>
<g transform="translate(406, 140)" class="key trans keypos-29">
<rect rx="6" ry="6" x="-26" y="-26" width="52" height="52" class="key trans side"/>
<rect rx="4" ry="4" x="-20" y="-24" width="40" height="40" class="key trans"/>
<use href="#mdi:transfer" xlink:href="#mdi:transfer" x="-9" y="-13" height="18" width="18.0" class="key trans tap glyph mdi:transfer"/>
</g>
<g transform="translate(462, 140)" class="key trans keypos-30">
<rect rx="6" ry="6" x="-26" y="-26" width="52" height="52" class="key trans side"/>
<rect rx="4" ry="4" x="-20" y="-24" width="40" height="40" class="key trans"/>
<use href="#mdi:transfer" xlink:href="#mdi:transfer" x="-9" y="-13" height="18" width="18.0" class="key trans tap glyph mdi:transfer"/>
</g>
<g transform="translate(518, 140)" class="key trans keypos-31">
<rect rx="6" ry="6" x="-26" y="-26" width="52" height="52" class="key trans side"/>
<rect rx="4" ry="4" x="-20" y="-24" width="40" height="40" class="key trans"/>
<use href="#mdi:transfer" xlink:href="#mdi:transfer" x="-9" y="-13" height="18" width="18.0" class="key trans tap glyph mdi:transfer"/>
</g>
<g transform="translate(574, 140)" class="key trans keypos-32">
<rect rx="6" ry="6" x="-26" y="-26" width="52" height="52" class="key trans side"/>
<rect rx="4" ry="4" x="-20" y="-24" width="40" height="40" class="key trans"/>
<use href="#mdi:transfer" xlink:href="#mdi:transfer" x="-9" y="-13" height="18" width="18.0" class="key trans tap glyph mdi:transfer"/>
</g>
<g transform="translate(637, 140)" class="key trans keypos-33">
<rect rx="6" ry="6" x="-33" y="-26" width="66" height="52" class="key trans side"/>
<rect rx="4" ry="4" x="-27" y="-24" width="54" height="40" class="key trans"/>
<use href="#mdi:transfer" xlink:href="#mdi:transfer" x="-9" y="-13" height="18" width="18.0" class="key trans tap glyph mdi:transfer"/>
</g>
<g transform="translate(35, 196)" class="key trans keypos-34">
<rect rx="6" ry="6" x="-33" y="-26" width="66" height="52" class="key trans side"/>
<rect rx="4" ry="4" x="-27" y="-24" width="54" height="40" class="key trans"/>
<use href="#mdi:transfer" xlink:href="#mdi:transfer" x="-9" y="-13" height="18" width="18.0" class="key trans tap glyph mdi:transfer"/>
</g>
<g transform="translate(98, 196)" class="key trans keypos-35">
<rect rx="6" ry="6" x="-26" y="-26" width="52" height="52" class="key trans side"/>
<rect rx="4" ry="4" x="-20" y="-24" width="40" height="40" class="key trans"/>
<use href="#mdi:transfer" xlink:href="#mdi:transfer" x="-9" y="-13" height="18" width="18.0" class="key trans tap glyph mdi:transfer"/>
</g>
<g transform="translate(161, 196)" class="key trans keypos-36">
<rect rx="6" ry="6" x="-33" y="-26" width="66" height="52" class="key trans side"/>
<rect rx="4" ry="4" x="-27" y="-24" width="54" height="40" class="key trans"/>
<use href="#mdi:transfer" xlink:href="#mdi:transfer" x="-9" y="-13" height="18" width="18.0" class="key trans tap glyph mdi:transfer"/>
</g>
<g transform="translate(273, 196)" class="key trans keypos-37">
<rect rx="6" ry="6" x="-75" y="-26" width="150" height="52" class="key trans side"/>
<rect rx="4" ry="4" x="-69" y="-24" width="138" height="40" class="key trans"/>
<use href="#mdi:transfer" xlink:href="#mdi:transfer" x="-9" y="-13" height="18" width="18.0" class="key trans tap glyph mdi:transfer"/>
</g>
<g transform="translate(413, 196)" class="key trans keypos-38">
<rect rx="6" ry="6" x="-61" y="-26" width="122" height="52" class="key trans side"/>
<rect rx="4" ry="4" x="-55" y="-24" width="110" height="40" class="key trans"/>
<use href="#mdi:transfer" xlink:href="#mdi:transfer" x="-9" y="-13" height="18" width="18.0" class="key trans tap glyph mdi:transfer"/>
</g>
<g transform="translate(511, 196)" class="key trans keypos-39">
<rect rx="6" ry="6" x="-33" y="-26" width="66" height="52" class="key trans side"/>
<rect rx="4" ry="4" x="-27" y="-24" width="54" height="40" class="key trans"/>
<use href="#mdi:transfer" xlink:href="#mdi:transfer" x="-9" y="-13" height="18" width="18.0" class="key trans tap glyph mdi:transfer"/>
</g>
<g transform="translate(574, 196)" class="key trans keypos-40">
<rect rx="6" ry="6" x="-26" y="-26" width="52" height="52" class="key trans side"/>
<rect rx="4" ry="4" x="-20" y="-24" width="40" height="40" class="key trans"/>
<use href="#mdi:transfer" xlink:href="#mdi:transfer" x="-9" y="-13" height="18" width="18.0" class="key trans tap glyph mdi:transfer"/>
</g>
<g transform="translate(637, 196)" class="key trans keypos-41">
<rect rx="6" ry="6" x="-33" y="-26" width="66" height="52" class="key trans side"/>
<rect rx="4" ry="4" x="-27" y="-24" width="54" height="40" class="key trans"/>
<use href="#mdi:transfer" xlink:href="#mdi:transfer" x="-9" y="-13" height="18" width="18.0" class="key trans tap glyph mdi:transfer"/>
</g>
</g>
</g>
<g transform="translate(40, 560)" class="layer-2">
<text x="0" y="28" class="label" id="x_x">2:</text>
<g transform="translate(0, 56)">
<g transform="translate(28, 28)" class="key trans keypos-0">
<rect rx="6" ry="6" x="-26" y="-26" width="52" height="52" class="key trans side"/>
<rect rx="4" ry="4" x="-20" y="-24" width="40" height="40" class="key trans"/>
<use href="#mdi:transfer" xlink:href="#mdi:transfer" x="-9" y="-13" height="18" width="18.0" class="key trans tap glyph mdi:transfer"/>
</g>
<g transform="translate(84, 28)" class="key trans keypos-1">
<rect rx="6" ry="6" x="-26" y="-26" width="52" height="52" class="key trans side"/>
<rect rx="4" ry="4" x="-20" y="-24" width="40" height="40" class="key trans"/>
<use href="#mdi:transfer" xlink:href="#mdi:transfer" x="-9" y="-13" height="18" width="18.0" class="key trans tap glyph mdi:transfer"/>
</g>
<g transform="translate(140, 28)" class="key trans keypos-2">
<rect rx="6" ry="6" x="-26" y="-26" width="52" height="52" class="key trans side"/>
<rect rx="4" ry="4" x="-20" y="-24" width="40" height="40" class="key trans"/>
<use href="#mdi:transfer" xlink:href="#mdi:transfer" x="-9" y="-13" height="18" width="18.0" class="key trans tap glyph mdi:transfer"/>
</g>
<g transform="translate(196, 28)" class="key trans keypos-3">
<rect rx="6" ry="6" x="-26" y="-26" width="52" height="52" class="key trans side"/>
<rect rx="4" ry="4" x="-20" y="-24" width="40" height="40" class="key trans"/>
<use href="#mdi:transfer" xlink:href="#mdi:transfer" x="-9" y="-13" height="18" width="18.0" class="key trans tap glyph mdi:transfer"/>
</g>
<g transform="translate(252, 28)" class="key trans keypos-4">
<rect rx="6" ry="6" x="-26" y="-26" width="52" height="52" class="key trans side"/>
<rect rx="4" ry="4" x="-20" y="-24" width="40" height="40" class="key trans"/>
<use href="#mdi:transfer" xlink:href="#mdi:transfer" x="-9" y="-13" height="18" width="18.0" class="key trans tap glyph mdi:transfer"/>
</g>
<g transform="translate(308, 28)" class="key trans keypos-5">
<rect rx="6" ry="6" x="-26" y="-26" width="52" height="52" class="key trans side"/>
<rect rx="4" ry="4" x="-20" y="-24" width="40" height="40" class="key trans"/>
<use href="#mdi:transfer" xlink:href="#mdi:transfer" x="-9" y="-13" height="18" width="18.0" class="key trans tap glyph mdi:transfer"/>
</g>
<g transform="translate(364, 28)" class="key trans keypos-6">
<rect rx="6" ry="6" x="-26" y="-26" width="52" height="52" class="key trans side"/>
<rect rx="4" ry="4" x="-20" y="-24" width="40" height="40" class="key trans"/>
<use href="#mdi:transfer" xlink:href="#mdi:transfer" x="-9" y="-13" height="18" width="18.0" class="key trans tap glyph mdi:transfer"/>
</g>
<g transform="translate(420, 28)" class="key trans keypos-7">
<rect rx="6" ry="6" x="-26" y="-26" width="52" height="52" class="key trans side"/>
<rect rx="4" ry="4" x="-20" y="-24" width="40" height="40" class="key trans"/>
<use href="#mdi:transfer" xlink:href="#mdi:transfer" x="-9" y="-13" height="18" width="18.0" class="key trans tap glyph mdi:transfer"/>
</g>
<g transform="translate(476, 28)" class="key trans keypos-8">
<rect rx="6" ry="6" x="-26" y="-26" width="52" height="52" class="key trans side"/>
<rect rx="4" ry="4" x="-20" y="-24" width="40" height="40" class="key trans"/>
<use href="#mdi:transfer" xlink:href="#mdi:transfer" x="-9" y="-13" height="18" width="18.0" class="key trans tap glyph mdi:transfer"/>
</g>
<g transform="translate(532, 28)" class="key trans keypos-9">
<rect rx="6" ry="6" x="-26" y="-26" width="52" height="52" class="key trans side"/>
<rect rx="4" ry="4" x="-20" y="-24" width="40" height="40" class="key trans"/>
<use href="#mdi:transfer" xlink:href="#mdi:transfer" x="-9" y="-13" height="18" width="18.0" class="key trans tap glyph mdi:transfer"/>
</g>
<g transform="translate(588, 28)" class="key trans keypos-10">
<rect rx="6" ry="6" x="-26" y="-26" width="52" height="52" class="key trans side"/>
<rect rx="4" ry="4" x="-20" y="-24" width="40" height="40" class="key trans"/>
<use href="#mdi:transfer" xlink:href="#mdi:transfer" x="-9" y="-13" height="18" width="18.0" class="key trans tap glyph mdi:transfer"/>
</g>
<g transform="translate(644, 28)" class="key trans keypos-11">
<rect rx="6" ry="6" x="-26" y="-26" width="52" height="52" class="key trans side"/>
<rect rx="4" ry="4" x="-20" y="-24" width="40" height="40" class="key trans"/>
<use href="#mdi:transfer" xlink:href="#mdi:transfer" x="-9" y="-13" height="18" width="18.0" class="key trans tap glyph mdi:transfer"/>
</g>
<g transform="translate(35, 84)" class="key trans keypos-12">
<rect rx="6" ry="6" x="-33" y="-26" width="66" height="52" class="key trans side"/>
<rect rx="4" ry="4" x="-27" y="-24" width="54" height="40" class="key trans"/>
<use href="#mdi:transfer" xlink:href="#mdi:transfer" x="-9" y="-13" height="18" width="18.0" class="key trans tap glyph mdi:transfer"/>
</g>
<g transform="translate(98, 84)" class="key trans keypos-13">
<rect rx="6" ry="6" x="-26" y="-26" width="52" height="52" class="key trans side"/>
<rect rx="4" ry="4" x="-20" y="-24" width="40" height="40" class="key trans"/>
<use href="#mdi:transfer" xlink:href="#mdi:transfer" x="-9" y="-13" height="18" width="18.0" class="key trans tap glyph mdi:transfer"/>
</g>
<g transform="translate(154, 84)" class="key trans keypos-14">
<rect rx="6" ry="6" x="-26" y="-26" width="52" height="52" class="key trans side"/>
<rect rx="4" ry="4" x="-20" y="-24" width="40" height="40" class="key trans"/>
<use href="#mdi:transfer" xlink:href="#mdi:transfer" x="-9" y="-13" height="18" width="18.0" class="key trans tap glyph mdi:transfer"/>
</g>
<g transform="translate(210, 84)" class="key trans keypos-15">
<rect rx="6" ry="6" x="-26" y="-26" width="52" height="52" class="key trans side"/>
<rect rx="4" ry="4" x="-20" y="-24" width="40" height="40" class="key trans"/>
<use href="#mdi:transfer" xlink:href="#mdi:transfer" x="-9" y="-13" height="18" width="18.0" class="key trans tap glyph mdi:transfer"/>
</g>
<g transform="translate(266, 84)" class="key trans keypos-16">
<rect rx="6" ry="6" x="-26" y="-26" width="52" height="52" class="key trans side"/>
<rect rx="4" ry="4" x="-20" y="-24" width="40" height="40" class="key trans"/>
<use href="#mdi:transfer" xlink:href="#mdi:transfer" x="-9" y="-13" height="18" width="18.0" class="key trans tap glyph mdi:transfer"/>
</g>
<g transform="translate(322, 84)" class="key trans keypos-17">
<rect rx="6" ry="6" x="-26" y="-26" width="52" height="52" class="key trans side"/>
<rect rx="4" ry="4" x="-20" y="-24" width="40" height="40" class="key trans"/>
<use href="#mdi:transfer" xlink:href="#mdi:transfer" x="-9" y="-13" height="18" width="18.0" class="key trans tap glyph mdi:transfer"/>
</g>
<g transform="translate(378, 84)" class="key trans keypos-18">
<rect rx="6" ry="6" x="-26" y="-26" width="52" height="52" class="key trans side"/>
<rect rx="4" ry="4" x="-20" y="-24" width="40" height="40" class="key trans"/>
<use href="#mdi:transfer" xlink:href="#mdi:transfer" x="-9" y="-13" height="18" width="18.0" class="key trans tap glyph mdi:transfer"/>
</g>
<g transform="translate(434, 84)" class="key trans keypos-19">
<rect rx="6" ry="6" x="-26" y="-26" width="52" height="52" class="key trans side"/>
<rect rx="4" ry="4" x="-20" y="-24" width="40" height="40" class="key trans"/>
<use href="#mdi:transfer" xlink:href="#mdi:transfer" x="-9" y="-13" height="18" width="18.0" class="key trans tap glyph mdi:transfer"/>
</g>
<g transform="translate(490, 84)" class="key trans keypos-20">
<rect rx="6" ry="6" x="-26" y="-26" width="52" height="52" class="key trans side"/>
<rect rx="4" ry="4" x="-20" y="-24" width="40" height="40" class="key trans"/>
<use href="#mdi:transfer" xlink:href="#mdi:transfer" x="-9" y="-13" height="18" width="18.0" class="key trans tap glyph mdi:transfer"/>
</g>
<g transform="translate(546, 84)" class="key trans keypos-21">
<rect rx="6" ry="6" x="-26" y="-26" width="52" height="52" class="key trans side"/>
<rect rx="4" ry="4" x="-20" y="-24" width="40" height="40" class="key trans"/>
<use href="#mdi:transfer" xlink:href="#mdi:transfer" x="-9" y="-13" height="18" width="18.0" class="key trans tap glyph mdi:transfer"/>
</g>
<g transform="translate(623, 84)" class="key trans keypos-22">
<rect rx="6" ry="6" x="-47" y="-26" width="94" height="52" class="key trans side"/>
<rect rx="4" ry="4" x="-41" y="-24" width="82" height="40" class="key trans"/>
<use href="#mdi:transfer" xlink:href="#mdi:transfer" x="-9" y="-13" height="18" width="18.0" class="key trans tap glyph mdi:transfer"/>
</g>
<g transform="translate(49, 140)" class="key trans keypos-23">
<rect rx="6" ry="6" x="-47" y="-26" width="94" height="52" class="key trans side"/>
<rect rx="4" ry="4" x="-41" y="-24" width="82" height="40" class="key trans"/>
<use href="#mdi:transfer" xlink:href="#mdi:transfer" x="-9" y="-13" height="18" width="18.0" class="key trans tap glyph mdi:transfer"/>
</g>
<g transform="translate(126, 140)" class="key trans keypos-24">
<rect rx="6" ry="6" x="-26" y="-26" width="52" height="52" class="key trans side"/>
<rect rx="4" ry="4" x="-20" y="-24" width="40" height="40" class="key trans"/>
<use href="#mdi:transfer" xlink:href="#mdi:transfer" x="-9" y="-13" height="18" width="18.0" class="key trans tap glyph mdi:transfer"/>
</g>
<g transform="translate(182, 140)" class="key trans keypos-25">
<rect rx="6" ry="6" x="-26" y="-26" width="52" height="52" class="key trans side"/>
<rect rx="4" ry="4" x="-20" y="-24" width="40" height="40" class="key trans"/>
<use href="#mdi:transfer" xlink:href="#mdi:transfer" x="-9" y="-13" height="18" width="18.0" class="key trans tap glyph mdi:transfer"/>
</g>
<g transform="translate(238, 140)" class="key trans keypos-26">
<rect rx="6" ry="6" x="-26" y="-26" width="52" height="52" class="key trans side"/>
<rect rx="4" ry="4" x="-20" y="-24" width="40" height="40" class="key trans"/>
<use href="#mdi:transfer" xlink:href="#mdi:transfer" x="-9" y="-13" height="18" width="18.0" class="key trans tap glyph mdi:transfer"/>
</g>
<g transform="translate(294, 140)" class="key trans keypos-27">
<rect rx="6" ry="6" x="-26" y="-26" width="52" height="52" class="key trans side"/>
<rect rx="4" ry="4" x="-20" y="-24" width="40" height="40" class="key trans"/>
<use href="#mdi:transfer" xlink:href="#mdi:transfer" x="-9" y="-13" height="18" width="18.0" class="key trans tap glyph mdi:transfer"/>
</g>
<g transform="translate(350, 140)" class="key trans keypos-28">
<rect rx="6" ry="6" x="-26" y="-26" width="52" height="52" class="key trans side"/>
<rect rx="4" ry="4" x="-20" y="-24" width="40" height="40" class="key trans"/>
<use href="#mdi:transfer" xlink:href="#mdi:transfer" x="-9" y="-13" height="18" width="18.0" class="key trans tap glyph mdi:transfer"/>
</g>
<g transform="translate(406, 140)" class="key trans keypos-29">
<rect rx="6" ry="6" x="-26" y="-26" width="52" height="52" class="key trans side"/>
<rect rx="4" ry="4" x="-20" y="-24" width="40" height="40" class="key trans"/>
<use href="#mdi:transfer" xlink:href="#mdi:transfer" x="-9" y="-13" height="18" width="18.0" class="key trans tap glyph mdi:transfer"/>
</g>
<g transform="translate(462, 140)" class="key trans keypos-30">
<rect rx="6" ry="6" x="-26" y="-26" width="52" height="52" class="key trans side"/>
<rect rx="4" ry="4" x="-20" y="-24" width="40" height="40" class="key trans"/>
<use href="#mdi:transfer" xlink:href="#mdi:transfer" x="-9" y="-13" height="18" width="18.0" class="key trans tap glyph mdi:transfer"/>
</g>
<g transform="translate(518, 140)" class="key trans keypos-31">
<rect rx="6" ry="6" x="-26" y="-26" width="52" height="52" class="key trans side"/>
<rect rx="4" ry="4" x="-20" y="-24" width="40" height="40" class="key trans"/>
<use href="#mdi:transfer" xlink:href="#mdi:transfer" x="-9" y="-13" height="18" width="18.0" class="key trans tap glyph mdi:transfer"/>
</g>
<g transform="translate(574, 140)" class="key trans keypos-32">
<rect rx="6" ry="6" x="-26" y="-26" width="52" height="52" class="key trans side"/>
<rect rx="4" ry="4" x="-20" y="-24" width="40" height="40" class="key trans"/>
<use href="#mdi:transfer" xlink:href="#mdi:transfer" x="-9" y="-13" height="18" width="18.0" class="key trans tap glyph mdi:transfer"/>
</g>
<g transform="translate(637, 140)" class="key trans keypos-33">
<rect rx="6" ry="6" x="-33" y="-26" width="66" height="52" class="key trans side"/>
<rect rx="4" ry="4" x="-27" y="-24" width="54" height="40" class="key trans"/>
<use href="#mdi:transfer" xlink:href="#mdi:transfer" x="-9" y="-13" height="18" width="18.0" class="key trans tap glyph mdi:transfer"/>
</g>
<g transform="translate(35, 196)" class="key trans keypos-34">
<rect rx="6" ry="6" x="-33" y="-26" width="66" height="52" class="key trans side"/>
<rect rx="4" ry="4" x="-27" y="-24" width="54" height="40" class="key trans"/>
<use href="#mdi:transfer" xlink:href="#mdi:transfer" x="-9" y="-13" height="18" width="18.0" class="key trans tap glyph mdi:transfer"/>
</g>
<g transform="translate(98, 196)" class="key trans keypos-35">
<rect rx="6" ry="6" x="-26" y="-26" width="52" height="52" class="key trans side"/>
<rect rx="4" ry="4" x="-20" y="-24" width="40" height="40" class="key trans"/>
<use href="#mdi:transfer" xlink:href="#mdi:transfer" x="-9" y="-13" height="18" width="18.0" class="key trans tap glyph mdi:transfer"/>
</g>
<g transform="translate(161, 196)" class="key trans keypos-36">
<rect rx="6" ry="6" x="-33" y="-26" width="66" height="52" class="key trans side"/>
<rect rx="4" ry="4" x="-27" y="-24" width="54" height="40" class="key trans"/>
<use href="#mdi:transfer" xlink:href="#mdi:transfer" x="-9" y="-13" height="18" width="18.0" class="key trans tap glyph mdi:transfer"/>
</g>
<g transform="translate(273, 196)" class="key trans keypos-37">
<rect rx="6" ry="6" x="-75" y="-26" width="150" height="52" class="key trans side"/>
<rect rx="4" ry="4" x="-69" y="-24" width="138" height="40" class="key trans"/>
<use href="#mdi:transfer" xlink:href="#mdi:transfer" x="-9" y="-13" height="18" width="18.0" class="key trans tap glyph mdi:transfer"/>
</g>
<g transform="translate(413, 196)" class="key trans keypos-38">
<rect rx="6" ry="6" x="-61" y="-26" width="122" height="52" class="key trans side"/>
<rect rx="4" ry="4" x="-55" y="-24" width="110" height="40" class="key trans"/>
<use href="#mdi:transfer" xlink:href="#mdi:transfer" x="-9" y="-13" height="18" width="18.0" class="key trans tap glyph mdi:transfer"/>
</g>
<g transform="translate(511, 196)" class="key trans keypos-39">
<rect rx="6" ry="6" x="-33" y="-26" width="66" height="52" class="key trans side"/>
<rect rx="4" ry="4" x="-27" y="-24" width="54" height="40" class="key trans"/>
<use href="#mdi:transfer" xlink:href="#mdi:transfer" x="-9" y="-13" height="18" width="18.0" class="key trans tap glyph mdi:transfer"/>
</g>
<g transform="translate(574, 196)" class="key trans keypos-40">
<rect rx="6" ry="6" x="-26" y="-26" width="52" height="52" class="key trans side"/>
<rect rx="4" ry="4" x="-20" y="-24" width="40" height="40" class="key trans"/>
<use href="#mdi:transfer" xlink:href="#mdi:transfer" x="-9" y="-13" height="18" width="18.0" class="key trans tap glyph mdi:transfer"/>
</g>
<g transform="translate(637, 196)" class="key trans keypos-41">
<rect rx="6" ry="6" x="-33" y="-26" width="66" height="52" class="key trans side"/>
<rect rx="4" ry="4" x="-27" y="-24" width="54" height="40" class="key trans"/>
<use href="#mdi:transfer" xlink:href="#mdi:transfer" x="-9" y="-13" height="18" width="18.0" class="key trans tap glyph mdi:transfer"/>
</g>
</g>
</g>
</svg>
